<svg width="90" height="90" viewBox="0 0 90 90" fill="none" xmlns="http://www.w3.org/2000/svg">
<path d="M24.1673 53.3335C26.3775 53.3335 28.4971 52.4555 30.0599 50.8927C31.6227 49.3299 32.5007 47.2103 32.5007 45.0002C32.5007 42.79 31.6227 40.6704 30.0599 39.1076C28.4971 37.5448 26.3775 36.6668 24.1673 36.6668C21.9572 36.6668 19.8376 37.5448 18.2748 39.1076C16.712 40.6704 15.834 42.79 15.834 45.0002C15.834 47.2103 16.712 49.3299 18.2748 50.8927C19.8376 52.4555 21.9572 53.3335 24.1673 53.3335ZM65.834 53.3335C68.0441 53.3335 70.1637 52.4555 71.7265 50.8927C73.2893 49.3299 74.1673 47.2103 74.1673 45.0002C74.1673 42.79 73.2893 40.6704 71.7265 39.1076C70.1637 37.5448 68.0441 36.6668 65.834 36.6668C63.6238 36.6668 61.5042 37.5448 59.9414 39.1076C58.3786 40.6704 57.5006 42.79 57.5006 45.0002C57.5006 47.2103 58.3786 49.3299 59.9414 50.8927C61.5042 52.4555 63.6238 53.3335 65.834 53.3335ZM45.0006 32.5002C47.2108 32.5002 49.3304 31.6222 50.8932 30.0594C52.456 28.4966 53.334 26.377 53.334 24.1668C53.334 21.9567 52.456 19.8371 50.8932 18.2743C49.3304 16.7115 47.2108 15.8335 45.0006 15.8335C42.7905 15.8335 40.6709 16.7115 39.1081 18.2743C37.5453 19.8371 36.6673 21.9567 36.6673 24.1668C36.6673 26.377 37.5453 28.4966 39.1081 30.0594C40.6709 31.6222 42.7905 32.5002 45.0006 32.5002ZM45.0006 74.1668C47.2108 74.1668 49.3304 73.2889 50.8932 71.726C52.456 70.1632 53.334 68.0436 53.334 65.8335C53.334 63.6234 52.456 61.5037 50.8932 59.9409C49.3304 58.3781 47.2108 57.5002 45.0006 57.5002C42.7905 57.5002 40.6709 58.3781 39.1081 59.9409C37.5453 61.5037 36.6673 63.6234 36.6673 65.8335C36.6673 68.0436 37.5453 70.1632 39.1081 71.726C40.6709 73.2889 42.7905 74.1668 45.0006 74.1668Z" stroke="black" stroke-width="6.25" stroke-linecap="round" stroke-linejoin="round"/>
<path d="M3.33398 45.0002C3.33398 68.0127 21.9882 86.6668 45.0007 86.6668C68.0132 86.6668 86.6673 68.0127 86.6673 45.0002C86.6673 21.9877 68.0132 3.3335 45.0007 3.3335C21.9882 3.3335 3.33398 21.9877 3.33398 45.0002ZM3.33398 45.0002V86.6668" stroke="black" stroke-width="6.25" stroke-linecap="round" stroke-linejoin="round"/>
</svg>
